HIERARCHY
ROOT Hips
{
	OFFSET 0.00000 0.00000 0.00000
	CHANNELS 6 Xposition Yposition Zposition Zrotation Yrotation Xrotation 
	JOINT LHipJoint
	{
		OFFSET 0 0 0
		CHANNELS 3 Zrotation Yrotation Xrotation
		JOINT LeftHip
		{
			OFFSET 1.52977 -1.71332 0.88991
			CHANNELS 3 Zrotation Yrotation Xrotation
			JOINT LeftKnee
			{
				OFFSET 2.23949 -6.15296 0.00000
				CHANNELS 3 Zrotation Yrotation Xrotation
				JOINT LeftAnkle
				{
					OFFSET 2.68396 -7.37412 0.00000
					CHANNELS 3 Zrotation Yrotation Xrotation
					JOINT LeftToe
					{
						OFFSET 0.20538 -0.56428 2.52710
						CHANNELS 3 Zrotation Yrotation Xrotation
						End Site
						{
							OFFSET 0.00000 -0.00000 1.29919
						}
					}
				}
			}
		}
	}
	JOINT RHipJoint
	{
		OFFSET 0 0 0
		CHANNELS 3 Zrotation Yrotation Xrotation
		JOINT RightHip
		{
			OFFSET -1.45689 -1.71333 0.88991
			CHANNELS 3 Zrotation Yrotation Xrotation
			JOINT RightKnee
			{
				OFFSET -2.36700 -6.50329 0.00000
				CHANNELS 3 Zrotation Yrotation Xrotation
				JOINT RightAnkle
				{
					OFFSET -2.69814 -7.41308 0.00000
					CHANNELS 3 Zrotation Yrotation Xrotation
					JOINT RightToe
					{
						OFFSET -0.18734 -0.51471 2.37479
						CHANNELS 3 Zrotation Yrotation Xrotation
						End Site
						{
							OFFSET -0.00000 -0.00000 1.22113
						}
					}
				}
			}
		}
	}
	JOINT lowerback
	{
		OFFSET 0 0 0
		CHANNELS 3 Zrotation Yrotation Xrotation
		JOINT Chest
		{
			OFFSET 0.04294 2.14638 -0.31163
			CHANNELS 3 Zrotation Yrotation Xrotation
			JOINT Chest2
			{
				OFFSET -0.00400 2.17216 0.01486
				CHANNELS 3 Zrotation Yrotation Xrotation
				JOINT lowerneck
				{
					OFFSET 0 0 0
					CHANNELS 3 Zrotation Yrotation Xrotation
					JOINT Neck
					{
						OFFSET 0.03869 1.76598 0.14916
						CHANNELS 3 Zrotation Yrotation Xrotation
						JOINT Head
						{
							OFFSET -0.00760 1.75513 -0.18948
							CHANNELS 3 Zrotation Yrotation Xrotation
							End Site
							{
								OFFSET -0.00601 1.82444 -0.08310
							}
						}
					}
				}
				JOINT LeftCollar
				{
					OFFSET 0 0 0
					CHANNELS 3 Zrotation Yrotation Xrotation
					JOINT LeftShoulder
					{
						OFFSET 3.73696 0.92058 0.01733
CHANNELS 3 Zrotation Xrotation Yrotation
						JOINT LeftElbow
						{
OFFSET 0 -5.227710 0.000000
CHANNELS 3 Zrotation Xrotation Yrotation
							JOINT LeftWrist
							{
OFFSET 0 -3.452510 0.000000
CHANNELS 3 Zrotation Xrotation Yrotation
								JOINT lhand
								{
									OFFSET 0 0 0
CHANNELS 3 Zrotation Xrotation Yrotation
									JOINT LFingers
									{
OFFSET 0 -0.552120 0.000000
CHANNELS 3 Zrotation Xrotation Yrotation
										End Site
										{
OFFSET 0 -0.445130 0.000000
										}
									}
								}
								JOINT LThumb
								{
OFFSET 0 0.000000 0.000000
CHANNELS 3 Zrotation Xrotation Yrotation
									End Site
									{
OFFSET 0 -0.451930 0.451930
									}
								}
							}
						}
					}
				}
				JOINT RightCollar
				{
					OFFSET 0 0 0
					CHANNELS 3 Zrotation Yrotation Xrotation
					JOINT RightShoulder
					{
						OFFSET -3.63819 0.83094 -0.13694
CHANNELS 3 Zrotation Xrotation Yrotation
						JOINT RightElbow
						{
OFFSET 0 -5.239800 -0.000000
CHANNELS 3 Zrotation Xrotation Yrotation
							JOINT RightWrist
							{
OFFSET 0 -3.480420 -0.000000
CHANNELS 3 Zrotation Xrotation Yrotation
								JOINT rhand
								{
									OFFSET 0 0 0
CHANNELS 3 Zrotation Xrotation Yrotation
									JOINT RFingers
									{
OFFSET 0 -0.618710 0.000000
CHANNELS 3 Zrotation Xrotation Yrotation
										End Site
										{
OFFSET 0 -0.498820 0.000000
										}
									}
								}
								JOINT RThumb
								{
OFFSET 0 0.000000 0.000000
CHANNELS 3 Zrotation Xrotation Yrotation
									End Site
									{
OFFSET 0 -0.506440 0.506440
									}
								}
							}
						}
					}
				}
			}
		}
	}
}
MOTION
Frames: 11
Frame Time: 0.008333333333333333
-3.797866 14.435304 -5.742395 -173.824586 -87.019508 186.157917 0.000000 0.000000 0.000000 -10.921993 -15.816359 -66.921345 8.297121 16.333276 53.625507 0.507106 1.355039 -14.012153 0.779713 -5.637551 -15.736216 0.000000 0.000000 0.000000 14.717347 14.047929 -43.607464 -20.825722 -19.983560 92.414942 -0.685092 6.406737 -14.768347 -0.433847 4.226603 -11.715217 0.852066 0.006137 33.555288 -1.728682 -0.668890 6.569064 -1.983007 -0.636381 -9.922103 1.636396 0.776196 -4.064372 0.310994 0.557795 -16.594665 -0.175689 -0.088287 -4.791098 0.000000 0.000000 0.000000 8.173523 -6.439152 -26.305653 25.285350 -36.494281 8.459020 17.766151 -23.233898 -12.770370 0.000000 0.000000 0.000000 -7.125000 0.000000 0.000000 -8.663674 43.199711 -0.388024 0.000000 0.000000 0.000000 -4.084847 -6.794798 32.684302 -29.851861 -40.766094 -11.312800 -20.509223 -7.490461 7.632137 0.000000 0.000000 0.000000 7.125000 0.000000 0.000000 5.415445 38.070648 0.927197
-4.099511 14.429698 -5.660686 -179.028122 -86.723069 191.558459 0.000000 0.000000 0.000000 -11.916294 -15.223154 -67.055745 8.771401 16.657863 55.295396 0.532664 0.257400 -13.886681 0.716286 -5.408245 -15.076771 0.000000 0.000000 0.000000 13.501711 13.734649 -44.393452 -21.383624 -19.953627 94.048629 -0.349046 5.212796 -10.541524 -0.364437 3.876310 -10.729074 0.604106 -0.010155 33.369419 -1.809748 -0.778008 6.528100 -1.896401 -0.679155 -9.899873 1.609917 0.866990 -4.012716 0.110168 0.664857 -16.459131 -0.242860 -0.019083 -4.748381 0.000000 0.000000 0.000000 8.267616 -6.530921 -26.238425 25.205523 -36.413319 8.411622 18.010246 -23.406125 -12.653680 0.000000 0.000000 0.000000 -7.125000 0.000000 0.000000 -8.420696 43.105210 -0.396675 0.000000 0.000000 0.000000 -4.027726 -6.962831 32.628916 -29.709876 -40.643407 -11.220195 -20.485935 -7.461286 7.680871 0.000000 0.000000 0.000000 7.125000 0.000000 0.000000 5.441216 38.120665 0.924988
-4.397057 14.424294 -5.581675 -182.405055 -86.411417 195.067486 0.000000 0.000000 0.000000 -12.862751 -14.518876 -67.119795 9.260850 16.972176 56.987076 0.578687 -0.716478 -14.144235 0.640634 -5.120026 -14.251450 0.000000 0.000000 0.000000 12.222662 13.611105 -45.556690 -22.062547 -19.897042 96.040422 -0.103850 3.462120 -5.758628 -0.250434 3.214770 -8.877735 0.384647 -0.018140 33.289499 -1.876083 -0.866476 6.471132 -1.816409 -0.713745 -9.934820 1.544610 0.938609 -4.015202 0.027008 0.761286 -16.249542 -0.262458 0.043181 -4.667962 0.000000 0.000000 0.000000 8.381860 -6.593468 -26.218582 25.199971 -36.407702 8.408287 18.185739 -23.666026 -12.385628 0.000000 0.000000 0.000000 -7.125000 0.000000 0.000000 -8.208516 42.846609 -0.439375 0.000000 0.000000 0.000000 -3.966828 -7.090295 32.563489 -29.647478 -40.589272 -11.179547 -20.302867 -7.439616 7.714612 0.000000 0.000000 0.000000 7.125000 0.000000 0.000000 5.601488 38.143741 0.949206
-4.688641 14.424626 -5.511671 -184.406678 -86.197253 197.099548 0.000000 0.000000 0.000000 -13.736346 -13.826254 -67.008624 9.732742 17.256526 58.590999 0.643235 -1.910491 -14.619026 0.540599 -4.710286 -13.084120 0.000000 0.000000 0.000000 10.975913 13.632232 -47.033218 -22.813859 -19.808611 98.252445 -0.001225 1.164733 -0.574127 -0.126848 2.288684 -6.304459 0.216289 -0.016723 33.334691 -1.907363 -0.926691 6.437972 -1.736217 -0.737960 -9.990275 1.512084 0.988227 -4.029919 -0.007598 0.830091 -16.107024 -0.270332 0.084979 -4.610998 0.000000 0.000000 0.000000 8.524867 -6.729333 -26.280250 25.315150 -36.524376 8.476808 18.114845 -23.764407 -12.363849 0.000000 0.000000 0.000000 -7.125000 0.000000 0.000000 -8.267288 42.816817 -0.448655 0.000000 0.000000 0.000000 -3.898129 -7.098366 32.442036 -29.797837 -40.719445 -11.277522 -20.123265 -7.464329 7.743011 0.000000 0.000000 0.000000 7.125000 0.000000 0.000000 5.758168 38.161309 0.973489
-4.972251 14.427496 -5.450719 -187.843915 -86.052787 200.609780 0.000000 0.000000 0.000000 -14.659620 -13.286955 -66.821525 10.158679 17.498122 60.017482 0.717644 -3.105978 -15.251996 0.442816 -4.269683 -11.836553 0.000000 0.000000 0.000000 9.551989 13.785042 -49.000460 -23.609662 -19.684550 100.607624 -0.073131 -1.563673 4.781217 -0.037041 1.237775 -3.403378 -0.032962 0.010043 33.343127 -1.943108 -0.981583 6.410983 -1.619717 -0.757149 -10.022999 1.516159 1.033785 -4.002011 -0.042145 0.889653 -16.104182 -0.284465 0.116158 -4.614639 0.000000 0.000000 0.000000 8.674148 -6.962433 -26.440154 25.540523 -36.751427 8.611328 18.020314 -23.835352 -12.413426 0.000000 0.000000 0.000000 -7.125000 0.000000 0.000000 -8.361729 42.858237 -0.445250 0.000000 0.000000 0.000000 -3.845933 -6.984347 32.324908 -30.151047 -41.022571 -11.508697 -20.081759 -7.652542 7.780470 0.000000 0.000000 0.000000 7.125000 0.000000 0.000000 5.798443 38.198066 0.975091
-5.246440 14.427313 -5.391041 -193.278013 -85.860440 206.228855 0.000000 0.000000 0.000000 -15.686565 -12.918254 -66.642680 10.540746 17.702751 61.280686 0.802504 -4.167668 -16.034116 0.355243 -3.828094 -10.593747 0.000000 0.000000 0.000000 7.855772 14.038533 -51.500308 -24.397450 -19.529354 102.955088 -0.322237 -4.454830 10.075616 -0.001442 -0.019566 0.053815 -0.370941 0.047746 33.241829 -2.029608 -1.054403 6.373639 -1.503827 -0.781139 -10.024426 1.511717 1.091459 -3.951229 -0.045960 0.966884 -16.188852 -0.287418 0.152895 -4.655489 0.000000 0.000000 0.000000 8.803317 -7.262005 -26.589739 25.856566 -37.066592 8.801084 18.031799 -23.918734 -12.545112 0.000000 0.000000 0.000000 -7.125000 0.000000 0.000000 -8.378736 42.995482 -0.417645 0.000000 0.000000 0.000000 -3.837863 -6.833899 32.314123 -30.586377 -41.390604 -11.795436 -20.154269 -8.023523 7.822633 0.000000 0.000000 0.000000 7.125000 0.000000 0.000000 5.741908 38.247581 0.958543
-5.512954 14.425352 -5.331864 -198.154432 -85.596372 211.289272 0.000000 0.000000 0.000000 -16.689180 -12.577510 -66.404634 10.897360 17.884306 62.447580 0.891650 -5.244417 -16.854332 0.274681 -3.369595 -9.309734 0.000000 0.000000 0.000000 6.243316 14.337826 -54.196929 -25.106611 -19.362338 105.085071 -0.604729 -6.266256 13.887107 -0.024618 -1.004138 2.760230 -0.704934 0.079910 33.133540 -2.137684 -1.135415 6.337979 -1.410004 -0.809320 -10.021205 1.500009 1.155385 -3.887577 -0.004814 1.058953 -16.275266 -0.274470 0.195306 -4.699704 0.000000 0.000000 0.000000 8.920720 -7.531086 -26.651871 26.248521 -37.452931 9.038409 18.189498 -24.127897 -12.650081 0.000000 0.000000 0.000000 -7.125000 0.000000 0.000000 -8.259522 43.120554 -0.385920 0.000000 0.000000 0.000000 -3.865554 -6.723382 32.460807 -30.962895 -41.704506 -12.045214 -20.221002 -8.446785 7.868817 0.000000 0.000000 0.000000 7.125000 0.000000 0.000000 5.690787 38.301062 0.942412
-5.773288 14.423318 -5.277313 -201.186402 -85.346266 214.419511 0.000000 0.000000 0.000000 -17.534557 -12.216305 -66.050981 11.237918 18.049452 63.551712 0.980006 -6.219031 -17.662199 0.213795 -2.975948 -8.211929 0.000000 0.000000 0.000000 5.086916 14.564391 -56.836426 -25.706086 -19.200476 106.900128 -0.616997 -6.346108 14.034892 -0.036344 -1.230051 3.382114 -0.973959 0.102596 33.082091 -2.217945 -1.207055 6.326955 -1.324439 -0.836180 -10.012223 1.508742 1.202783 -3.810406 0.041601 1.129916 -16.350456 -0.262835 0.226107 -4.742657 0.000000 0.000000 0.000000 9.038242 -7.738770 -26.665521 26.699154 -37.890613 9.313814 18.430019 -24.536584 -12.559844 0.000000 0.000000 0.000000 -7.125000 0.000000 0.000000 -8.025805 43.052631 -0.388369 0.000000 0.000000 0.000000 -3.917480 -6.693911 32.720214 -31.215191 -41.912500 -12.213382 -20.232444 -8.815615 7.877462 0.000000 0.000000 0.000000 7.125000 0.000000 0.000000 5.682073 38.310971 0.939610
-6.027967 14.421633 -5.228876 -203.186608 -85.214207 216.467815 0.000000 0.000000 0.000000 -18.189098 -11.961419 -65.591869 11.562323 18.199379 64.594639 1.067660 -7.082841 -18.450421 0.170068 -2.656610 -7.324135 0.000000 0.000000 0.000000 4.438749 14.627129 -59.403099 -26.169916 -19.061600 108.315298 -0.333415 -6.027356 10.470238 -0.028613 -1.091079 2.999489 -1.143117 0.083218 33.061692 -2.252599 -1.293893 6.339654 -1.238078 -0.873011 -9.989343 1.547453 1.233995 -3.745860 0.047092 1.173228 -16.411944 -0.269412 0.243237 -4.777862 0.000000 0.000000 0.000000 9.162850 -7.913365 -26.693915 27.174873 -38.345411 9.607470 18.590967 -25.044355 -12.322258 0.000000 0.000000 0.000000 -7.125000 0.000000 0.000000 -7.834121 42.823216 -0.423565 0.000000 0.000000 0.000000 -3.975040 -6.731044 32.988359 -31.373008 -42.041584 -12.318868 -20.180198 -9.009896 7.868467 0.000000 0.000000 0.000000 7.125000 0.000000 0.000000 5.725528 38.297872 0.948670
-6.277959 14.419279 -5.186285 -204.690073 -85.225511 218.014790 0.000000 0.000000 0.000000 -18.644077 -11.895498 -65.065810 11.873901 18.336774 65.588488 1.157072 -7.866097 -19.234225 0.131638 -2.338125 -6.441082 0.000000 0.000000 0.000000 4.162544 14.657385 -61.945828 -26.446619 -18.972944 109.164362 -0.036461 -6.175385 5.185934 -0.030794 -1.132698 3.113916 -1.186515 0.009960 33.048504 -2.243661 -1.399570 6.358296 -1.165831 -0.921001 -9.964010 1.584064 1.248373 -3.748641 0.032336 1.190268 -16.409469 -0.281330 0.249734 -4.775906 0.000000 0.000000 0.000000 9.293751 -8.079428 -26.784287 27.644265 -38.786568 9.900109 18.595453 -25.448105 -12.137371 0.000000 0.000000 0.000000 -7.125000 0.000000 0.000000 -7.793635 42.631724 -0.458418 0.000000 0.000000 0.000000 -4.016285 -6.774668 33.168059 -31.494527 -42.140435 -12.400295 -20.053800 -9.024178 7.858532 0.000000 0.000000 0.000000 7.125000 0.000000 0.000000 5.832244 38.278470 0.969313
-6.524877 14.413333 -5.148286 -206.018249 -85.247930 219.414429 0.000000 0.000000 0.000000 -19.020236 -11.909222 -64.550555 12.180240 18.465708 66.558986 1.250412 -8.523767 -20.023861 0.099339 -2.031642 -5.593184 0.000000 0.000000 0.000000 3.995840 14.843875 -64.502401 -26.510847 -18.951704 109.362019 0.096129 -5.840209 -0.421944 -0.022277 -0.958188 2.633757 -1.204418 -0.063717 33.034955 -2.227898 -1.494466 6.356272 -1.104145 -0.963495 -9.961535 1.605099 1.251636 -3.792223 0.018391 1.192650 -16.347085 -0.289387 0.251355 -4.743732 0.000000 0.000000 0.000000 9.427311 -8.211409 -26.951449 28.088653 -39.197607 10.179709 18.612027 -25.677280 -12.023061 0.000000 0.000000 0.000000 -7.125000 0.000000 0.000000 -7.756527 42.514873 -0.478755 0.000000 0.000000 0.000000 -4.019251 -6.765295 33.236067 -31.602666 -42.228120 -12.472922 -19.918621 -8.992460 7.844823 0.000000 0.000000 0.000000 7.125000 0.000000 0.000000 5.945914 38.254624 0.991791
